# xmcd
#
# Track frame offsets:
# 150
# 4680
# 15709
# 17132
# 23657
# 27948
#
# Disc length: 529 seconds
#
#
# Revision: 0
# Processed by: cddbd v1.5.1PL0 Copyright (c) Steve Scherf et al.
# Submitted via: FreeRIP 2.93 
#
DISCID=36020f06
DTITLE=Spargelcore - Keeping It Real In The Fields
DYEAR=2005
DGENRE=Spargelcore
TTITLE0=Spargel/Intro
TTITLE1=Keeping It Real
TTITLE2=Spargeltje Leggen!
TTITLE3=Poasmert Hooligan
TTITLE4=Rondjes Riejuh
TTITLE5=Zoepuh In De Keet
EXTD=--P1NKY---
EXTT0=
EXTT1=
EXTT2=
EXTT3=
EXTT4=
EXTT5=
PLAYORDER=
